<?xml version="1.0" encoding="UTF-8" standalone="no"?>
<svg
   xmlns:dc="http://purl.org/dc/elements/1.1/"
   xmlns:cc="http://creativecommons.org/ns#"
   xmlns:rdf="http://www.w3.org/1999/02/22-rdf-syntax-ns#"
   xmlns:svg="http://www.w3.org/2000/svg"
   xmlns="http://www.w3.org/2000/svg"
   id="svg14"
   version="1.1"
   viewBox="0 0 841.9 595.3">
  <metadata
     id="metadata20">
    <rdf:RDF>
      <cc:Work
         rdf:about="">
        <dc:format>image/svg+xml</dc:format>
        <dc:type
           rdf:resource="http://purl.org/dc/dcmitype/StillImage" />
        <dc:title></dc:title>
      </cc:Work>
    </rdf:RDF>
  </metadata>
  <defs
     id="defs18" />
  <g
     style="fill:#0bad44;fill-opacity:1"
     transform="matrix(23.37055,0,0,23.37055,91.604703,18.901814)"
     id="g12">
    <path
       style="fill:#0bad44;fill-opacity:1"
       id="path10"
       d="M 23,5.5 V 20 c 0,2.2 -1.8,4 -4,4 H 11.7 C 10.62,24 9.6,23.57 8.85,22.81 L 1,14.83 c 0,0 1.26,-1.23 1.3,-1.25 0.22,-0.19 0.49,-0.29 0.79,-0.29 0.22,0 0.42,0.06 0.6,0.16 C 3.73,13.46 8,15.91 8,15.91 V 4 C 8,3.17 8.67,2.5 9.5,2.5 10.33,2.5 11,3.17 11,4 v 7 h 1 V 1.5 C 12,0.67 12.67,0 13.5,0 14.33,0 15,0.67 15,1.5 V 11 h 1 V 2.5 C 16,1.67 16.67,1 17.5,1 18.33,1 19,1.67 19,2.5 V 11 h 1 V 5.5 C 20,4.67 20.67,4 21.5,4 22.33,4 23,4.67 23,5.5 Z" />
  </g>
</svg>
